<svg width="269" height="379" viewBox="0 0 269 379" fill="none" xmlns="http://www.w3.org/2000/svg">
<path d="M128.285 134.061C165.292 134.061 195.292 104.06 195.292 67.0534C195.292 30.0463 165.292 0.0462265 128.285 0.0462265C91.278 0.0462265 61.2778 30.0463 61.2778 67.0534C61.2778 104.06 91.278 134.061 128.285 134.061Z" fill="black"/>
<path d="M81.38 234.571V301.578H188.591V234.571H148.387V261.374C148.387 264.928 146.975 268.337 144.462 270.85C141.949 273.364 138.54 274.775 134.986 274.775C131.431 274.775 128.023 273.364 125.509 270.85C122.996 268.337 121.584 264.928 121.584 261.374V234.571H81.38Z" fill="black"/>
<path d="M269 221.17V328.381C269 342.598 263.352 356.233 253.299 366.286C243.246 376.339 229.611 381.987 215.394 381.987H154.552C159.257 373.838 161.734 364.594 161.734 355.184C161.734 345.774 159.257 336.53 154.552 328.381H215.394V221.17C215.394 217.615 213.982 214.207 211.469 211.694C208.956 209.18 205.547 207.768 201.993 207.768H67.9786C64.4243 207.768 61.0156 209.18 58.5023 211.694C55.9891 214.207 54.5771 217.615 54.5771 221.17V328.381H108.183C115.291 328.381 122.109 331.205 127.135 336.232C132.162 341.258 134.986 348.075 134.986 355.184C134.986 362.293 132.162 369.11 127.135 374.137C122.109 379.163 115.291 381.987 108.183 381.987H54.5771C40.36 381.987 26.7252 376.339 16.6722 366.286C6.61916 356.233 0.971436 342.598 0.971436 328.381V221.17C0.971436 203.398 8.0311 186.355 20.5974 173.789C33.1636 161.222 50.2072 154.163 67.9786 154.163H86.8746C101.389 162.936 118.026 167.573 134.986 167.573C151.946 167.573 168.582 162.936 183.097 154.163H201.993C219.764 154.163 236.808 161.222 249.374 173.789C261.94 186.355 269 203.398 269 221.17Z" fill="black"/>
</svg>
