<svg width="188" height="57" viewBox="0 0 188 57" fill="none" xmlns="http://www.w3.org/2000/svg">
<path d="M20.918 0.128906H21.3477C25.1628 0.49349 27.0703 1.95833 27.0703 4.52344C26.7839 7.19271 24.4401 10.2656 20.0391 13.7422C24.7266 13.7422 27.0703 15.0573 27.0703 17.6875C27.0703 19.9141 23.5547 23.4297 16.5234 28.2344C16.25 28.2344 14.9349 28.6706 12.5781 29.543C12.0052 29.2565 11.5625 29.1133 11.25 29.1133V28.6641C12.4219 28.6641 13.4505 20.0312 14.3359 2.76562C14.0365 2.76562 13.8867 2.61589 13.8867 2.31641C8.58724 4.11328 4.34245 6.45703 1.15234 9.34766H0.722656V8.46875C7.85807 2.90885 14.5898 0.128906 20.918 0.128906ZM15.2148 3.19531V7.58984C15.2148 9.0612 15.0651 11.2552 14.7656 14.1719H15.6445C18.4701 14.1719 21.8359 11.3919 25.7422 5.83203V4.52344C25.7422 2.17969 24.1341 1.00781 20.918 1.00781C17.1159 1.42448 15.2148 2.15365 15.2148 3.19531ZM13.457 28.2344H13.8867C21.7904 24.3802 25.7422 20.7214 25.7422 17.2578C25.7422 15.5 24.2773 14.6211 21.3477 14.6211H20.4688C16.3802 15.0117 14.3359 15.8906 14.3359 17.2578C13.75 23.4036 13.457 27.0625 13.457 28.2344ZM36.0156 16.4961H36.5625C37.0833 16.4961 37.6302 17.043 38.2031 18.1367V18.6836H36.0156C31.263 19.556 28.8867 21.75 28.8867 25.2656L30.5273 26.3594H41.4844C41.4844 27.2057 38.3789 27.7526 32.168 28C30.2669 28 28.8086 27.0885 27.793 25.2656V24.1719C29.8372 19.0547 32.5781 16.4961 36.0156 16.4961ZM49.082 16.3984C50.319 16.7109 50.9375 17.3294 50.9375 18.2539C48.1901 22.8893 45.4036 25.207 42.5781 25.207C46.9141 21.9388 49.082 20.0833 49.082 19.6406C49.3815 19.0417 49.5312 18.5794 49.5312 18.2539H48.6133C45.5143 18.2539 43.1966 20.4219 41.6602 24.7578C42.4414 26.6068 43.5221 27.5312 44.9023 27.5312L56.5039 24.7578V25.6758C50.4232 27.2253 46.7122 28 45.3711 28H43.0469C41.4974 27.2057 40.7227 25.9688 40.7227 24.2891C40.7227 22.0104 43.3529 19.3802 48.6133 16.3984H49.082ZM60.3125 16.0469C61.6406 16.3724 62.3047 17.3685 62.3047 19.0352L58.8281 27.0039C67.2266 24.3477 72.0378 23.0195 73.2617 23.0195H75.2539V23.5078C73.8477 23.5078 68.3724 25.0052 58.8281 28H57.832C57.168 28 56.8359 27.668 56.8359 27.0039C59.4922 22.9935 60.8203 20.3372 60.8203 19.0352V17.5312H60.3125C59.1016 17.5312 57.6107 18.1953 55.8398 19.5234H55.332C55.332 18.4427 56.9922 17.2839 60.3125 16.0469ZM82.5586 16.3398H83.125C83.724 16.3398 84.4727 17.6484 85.3711 20.2656C85.3711 20.8776 84.056 23.1237 81.4258 27.0039C81.0612 27.6289 80.8789 28.5664 80.8789 29.8164V32.0625C83.6523 31.3203 85.5208 30.9492 86.4844 30.9492C86.4844 31.6003 84.4271 32.5312 80.3125 33.7422C73.6458 45.3568 68.776 51.1641 65.7031 51.1641C65.1693 51.1641 64.6094 50.6042 64.0234 49.4844V48.3516C64.0234 43.8984 69.0755 38.4688 79.1797 32.0625L79.7461 28.1367H78.0664C76.1914 28.1367 75.0651 27.388 74.6875 25.8906C76.6536 19.5234 79.2773 16.3398 82.5586 16.3398ZM81.4258 18.5859L80.8789 21.3984V24.2109H81.4258C81.8555 24.2109 82.793 23.0846 84.2383 20.832C83.8607 20.181 83.6719 19.4323 83.6719 18.5859H81.4258ZM78.6328 19.7187C77.1354 22.5964 76.3867 24.4648 76.3867 25.3242V25.8906C76.5039 26.6328 76.875 27.0039 77.5 27.0039H78.0664C78.6003 27.0039 79.1602 26.444 79.7461 25.3242V19.7187H78.6328ZM66.2695 48.918C66.6471 48.918 66.8359 49.1068 66.8359 49.4844C69.6745 48.0391 73.2292 43.5469 77.5 36.0078V35.4414H76.3867C69.6419 39.4258 66.2695 43.918 66.2695 48.918ZM91.0547 16.2812H93.2227C93.6654 16.2812 94.2383 16.8542 94.9414 18V20.5781C93.7956 23.7292 93.2227 25.4544 93.2227 25.7539C93.7695 26.0404 94.1992 26.1836 94.5117 26.1836L102.246 22.7266V23.1758C98.1576 25.7539 95.4362 27.043 94.082 27.043C93.8607 27.043 92.9948 26.8997 91.4844 26.6133C90.4948 28.332 89.0625 29.1914 87.1875 29.1914C86.3932 28.2669 85.8203 27.1211 85.4688 25.7539C85.4688 21.3008 87.3307 18.1432 91.0547 16.2812ZM87.6172 22.2969V24.0352C87.7083 24.6081 87.9948 24.8945 88.4766 24.8945H89.3359C90.7682 24.4388 92.0638 22.7135 93.2227 19.7187H94.082V18.8594C94.082 18.4557 93.6523 18.026 92.793 17.5703C90.918 17.5703 89.1927 19.1458 87.6172 22.2969ZM88.4766 25.7539L86.7578 24.8945V25.7539L87.1875 27.9023H87.6172C89.388 27.9023 90.8268 26.7565 91.9336 24.4648H91.4844C90.4427 25.3242 89.4401 25.7539 88.4766 25.7539ZM130.996 11.2227C133.366 11.2227 134.824 12.8437 135.371 16.0859C135.371 19.7187 131.647 23.9245 124.199 28.7031V28.2344C131.322 22.8047 134.883 18.5924 134.883 15.5977C134.883 13.7487 132.943 12.6159 129.062 12.1992C116.758 15.2721 110.605 19.1589 110.605 23.8594H110.117C109.466 23.8594 109.141 23.5339 109.141 22.8828V21.418C114.414 16.2747 119.922 13.2018 125.664 12.1992C126.927 11.5482 128.704 11.2227 130.996 11.2227ZM123.223 18.5078L124.199 18.9961C122.91 25.6888 121.615 38.319 120.312 56.8867H119.824V55.4219C120.801 35.8125 121.934 23.5078 123.223 18.5078ZM144.609 15.3047C145.547 15.3047 146.016 15.9297 146.016 17.1797L142.266 29.3867V31.7305C141.641 31.7305 141.328 31.418 141.328 30.793V29.8555C141.328 28.2669 141.797 25.7604 142.734 22.3359C137.292 26.099 134.473 27.9805 134.277 27.9805H132.871V27.043C136.374 25.9232 139.974 23.4167 143.672 19.5234L142.734 19.9922H142.266C141.641 19.9922 141.328 19.6797 141.328 19.0547V18.5859C141.328 16.3984 142.422 15.3047 144.609 15.3047ZM142.734 17.1797V18.5859C144.271 17.7656 145.052 17.1406 145.078 16.7109H144.141C143.529 17.0234 143.06 17.1797 142.734 17.1797ZM153.262 16.3398H153.828C154.427 16.3398 155.176 17.6484 156.074 20.2656C156.074 20.8776 154.759 23.1237 152.129 27.0039C151.764 27.6289 151.582 28.5664 151.582 29.8164V32.0625C154.355 31.3203 156.224 30.9492 157.188 30.9492C157.188 31.6003 155.13 32.5312 151.016 33.7422C144.349 45.3568 139.479 51.1641 136.406 51.1641C135.872 51.1641 135.312 50.6042 134.727 49.4844V48.3516C134.727 43.8984 139.779 38.4687 149.883 32.0625L150.449 28.1367H148.77C146.895 28.1367 145.768 27.388 145.391 25.8906C147.357 19.5234 149.98 16.3398 153.262 16.3398ZM152.129 18.5859L151.582 21.3984V24.2109H152.129C152.559 24.2109 153.496 23.0846 154.941 20.832C154.564 20.181 154.375 19.4323 154.375 18.5859H152.129ZM149.336 19.7187C147.839 22.5964 147.09 24.4648 147.09 25.3242V25.8906C147.207 26.6328 147.578 27.0039 148.203 27.0039H148.77C149.303 27.0039 149.863 26.444 150.449 25.3242V19.7187H149.336ZM136.973 48.918C137.35 48.918 137.539 49.1068 137.539 49.4844C140.378 48.0391 143.932 43.5469 148.203 36.0078V35.4414H147.09C140.345 39.4258 136.973 43.918 136.973 48.918ZM165.488 16.3984H165.977C167.266 17.0365 167.91 18 167.91 19.2891C166.387 22.3359 163.483 25.2396 159.199 28H156.797C156.146 25.9948 155.82 24.3802 155.82 23.1562C158.659 18.651 161.882 16.3984 165.488 16.3984ZM157.754 25.5781V26.0664L158.242 27.0234C160.417 26.3073 163.158 24.0547 166.465 20.2656V18.332L164.531 17.8437C160.013 19.9401 157.754 22.5182 157.754 25.5781ZM178.652 15.8906H179.18V16.9453C179.18 17.7396 177.949 20.3698 175.488 24.8359V25.3633L176.543 25.8906L183.398 15.8906H183.926C183.926 16.724 182.871 19.0026 180.762 22.7266V24.8359C180.762 25.5391 181.289 25.8906 182.344 25.8906L187.598 22.7266V23.2539C185.71 25.7148 183.783 26.9453 181.816 26.9453H181.289C180.339 26.9453 179.811 26.0664 179.707 24.3086H179.18C177.409 26.418 176.354 27.4727 176.016 27.4727C175.065 27.4727 174.538 26.5937 174.434 24.8359H173.906L169.707 28H167.598V26.9453C167.819 24.8359 168.346 23.7812 169.18 23.7812C169.531 24.3672 169.707 25.2461 169.707 26.418H170.234C173.034 25.1549 175.488 21.8216 177.598 16.418L178.652 15.8906Z" fill="#797878"/>
</svg>
