<svg width="824" height="184" viewBox="0 0 824 184" fill="none" xmlns="http://www.w3.org/2000/svg">
<path d="M220.812 136.083V137.799C220.812 138.657 220.643 139.476 220.305 140.256C219.993 141.01 219.551 141.686 218.979 142.284C218.407 142.882 217.731 143.363 216.951 143.727C216.197 144.065 215.378 144.234 214.494 144.234C213.74 144.234 212.973 144.13 212.193 143.922C211.413 143.714 210.711 143.35 210.087 142.83C209.463 142.31 208.943 141.647 208.527 140.841C208.137 140.009 207.942 138.956 207.942 137.682V122.394C207.942 121.484 208.098 120.639 208.41 119.859C208.722 119.079 209.164 118.403 209.736 117.831C210.308 117.259 210.984 116.817 211.764 116.505C212.57 116.167 213.454 115.998 214.416 115.998C216.288 115.998 217.809 116.609 218.979 117.831C219.551 118.429 219.993 119.144 220.305 119.976C220.643 120.782 220.812 121.666 220.812 122.628V124.188H216.834V122.862C216.834 122.082 216.613 121.406 216.171 120.834C215.729 120.262 215.131 119.976 214.377 119.976C213.389 119.976 212.726 120.288 212.388 120.912C212.076 121.51 211.92 122.277 211.92 123.213V137.409C211.92 138.215 212.089 138.891 212.427 139.437C212.791 139.983 213.428 140.256 214.338 140.256C214.598 140.256 214.871 140.217 215.157 140.139C215.469 140.035 215.755 139.879 216.015 139.671C216.249 139.463 216.444 139.177 216.6 138.813C216.756 138.449 216.834 137.994 216.834 137.448V136.083H220.812ZM226.398 144V116.232H238.254V119.976H230.376V128.127H237.24V131.871H230.376V140.022H238.254V144H226.398ZM243.172 144V116.232H249.139C250.231 116.232 251.193 116.375 252.025 116.661C252.857 116.947 253.611 117.454 254.287 118.182C254.963 118.91 255.431 119.768 255.691 120.756C255.951 121.718 256.081 123.031 256.081 124.695C256.081 125.943 256.003 126.996 255.847 127.854C255.717 128.712 255.418 129.518 254.95 130.272C254.404 131.182 253.676 131.897 252.766 132.417C251.856 132.911 250.66 133.158 249.178 133.158H247.15V144H243.172ZM247.15 119.976V129.414H249.061C249.867 129.414 250.491 129.297 250.933 129.063C251.375 128.829 251.7 128.504 251.908 128.088C252.116 127.698 252.233 127.217 252.259 126.645C252.311 126.073 252.337 125.436 252.337 124.734C252.337 124.084 252.324 123.473 252.298 122.901C252.272 122.303 252.155 121.783 251.947 121.341C251.739 120.899 251.427 120.561 251.011 120.327C250.595 120.093 249.997 119.976 249.217 119.976H247.15ZM261.394 144V116.232H267.205C268.479 116.232 269.558 116.427 270.442 116.817C271.352 117.207 272.093 117.727 272.665 118.377C273.237 119.027 273.64 119.781 273.874 120.639C274.134 121.471 274.264 122.342 274.264 123.252V124.266C274.264 125.02 274.199 125.657 274.069 126.177C273.965 126.697 273.796 127.152 273.562 127.542C273.12 128.27 272.444 128.894 271.534 129.414C272.47 129.856 273.159 130.506 273.601 131.364C274.043 132.222 274.264 133.392 274.264 134.874V136.434C274.264 138.878 273.666 140.75 272.47 142.05C271.3 143.35 269.415 144 266.815 144H261.394ZM265.372 131.13V140.022H267.088C267.894 140.022 268.518 139.905 268.96 139.671C269.428 139.437 269.779 139.112 270.013 138.696C270.247 138.28 270.39 137.786 270.442 137.214C270.494 136.642 270.52 136.018 270.52 135.342C270.52 134.64 270.481 134.029 270.403 133.509C270.325 132.989 270.169 132.547 269.935 132.183C269.675 131.819 269.324 131.559 268.882 131.403C268.44 131.221 267.855 131.13 267.127 131.13H265.372ZM265.372 119.976V127.62H267.166C268.492 127.62 269.376 127.295 269.818 126.645C270.286 125.969 270.52 124.994 270.52 123.72C270.52 122.472 270.26 121.536 269.74 120.912C269.246 120.288 268.336 119.976 267.01 119.976H265.372ZM289.622 144V125.982H289.544L284.318 144H280.34V116.232H284.318V134.289H284.396L289.622 116.232H293.6V144H289.622ZM312.302 136.083V137.799C312.302 138.657 312.133 139.476 311.795 140.256C311.483 141.01 311.041 141.686 310.469 142.284C309.897 142.882 309.221 143.363 308.441 143.727C307.687 144.065 306.868 144.234 305.984 144.234C305.23 144.234 304.463 144.13 303.683 143.922C302.903 143.714 302.201 143.35 301.577 142.83C300.953 142.31 300.433 141.647 300.017 140.841C299.627 140.009 299.432 138.956 299.432 137.682V122.394C299.432 121.484 299.588 120.639 299.9 119.859C300.212 119.079 300.654 118.403 301.226 117.831C301.798 117.259 302.474 116.817 303.254 116.505C304.06 116.167 304.944 115.998 305.906 115.998C307.778 115.998 309.299 116.609 310.469 117.831C311.041 118.429 311.483 119.144 311.795 119.976C312.133 120.782 312.302 121.666 312.302 122.628V124.188H308.324V122.862C308.324 122.082 308.103 121.406 307.661 120.834C307.219 120.262 306.621 119.976 305.867 119.976C304.879 119.976 304.216 120.288 303.878 120.912C303.566 121.51 303.41 122.277 303.41 123.213V137.409C303.41 138.215 303.579 138.891 303.917 139.437C304.281 139.983 304.918 140.256 305.828 140.256C306.088 140.256 306.361 140.217 306.647 140.139C306.959 140.035 307.245 139.879 307.505 139.671C307.739 139.463 307.934 139.177 308.09 138.813C308.246 138.449 308.324 137.994 308.324 137.448V136.083H312.302ZM333.353 119.742V127.815C333.353 128.231 333.34 128.946 333.314 129.96C333.288 130.948 333.223 132.04 333.119 133.236C333.015 134.432 332.859 135.615 332.651 136.785C332.443 137.955 332.157 138.93 331.793 139.71C331.169 141.036 330.376 142.089 329.414 142.869C328.452 143.623 327.282 144 325.904 144H325.67V140.022C326.45 139.97 327.061 139.736 327.503 139.32C327.945 138.904 328.309 138.384 328.595 137.76C328.829 137.214 329.011 136.551 329.141 135.771C329.297 134.991 329.414 134.159 329.492 133.275C329.57 132.391 329.622 131.481 329.648 130.545C329.674 129.609 329.687 128.712 329.687 127.854V116.232H341.231V144H337.253V119.742H333.353ZM356.606 144V125.982H356.528L351.302 144H347.324V116.232H351.302V134.289H351.38L356.606 116.232H360.584V144H356.606ZM378.818 144H374.84V131.676C374.632 131.702 374.372 131.741 374.06 131.793C373.748 131.819 373.332 131.832 372.812 131.832C371.902 131.832 371.018 131.702 370.16 131.442C369.302 131.182 368.587 130.779 368.015 130.233C367.443 129.687 367.014 128.985 366.728 128.127C366.468 127.269 366.338 126.359 366.338 125.397V116.232H370.316V124.929C370.316 125.371 370.368 125.813 370.472 126.255C370.576 126.697 370.771 127.061 371.057 127.347C371.551 127.841 372.292 128.088 373.28 128.088C373.488 128.088 373.696 128.088 373.904 128.088C374.112 128.062 374.281 128.036 374.411 128.01C374.567 127.984 374.71 127.958 374.84 127.932V116.232H378.818V144ZM384.91 144V116.232H388.888V128.127H393.802V116.232H397.78V144H393.802V131.637H388.888V144H384.91ZM403.855 116.232H407.833V127.62H409.315C410.693 127.62 411.837 127.815 412.747 128.205C413.683 128.569 414.437 129.089 415.009 129.765C415.607 130.493 415.984 131.273 416.14 132.105C416.296 132.937 416.387 133.86 416.413 134.874V136.434C416.413 138.878 415.815 140.75 414.619 142.05C413.449 143.35 411.564 144 408.964 144H403.855V116.232ZM407.833 131.13V140.022H409.237C410.043 140.022 410.667 139.905 411.109 139.671C411.577 139.437 411.928 139.112 412.162 138.696C412.396 138.28 412.539 137.786 412.591 137.214C412.643 136.642 412.669 136.018 412.669 135.342C412.669 134.64 412.63 134.042 412.552 133.548C412.474 133.054 412.318 132.625 412.084 132.261C411.824 131.897 411.473 131.624 411.031 131.442C410.589 131.234 410.004 131.13 409.276 131.13H407.833ZM418.441 144V116.232H422.419V144H418.441ZM426.564 144L432.18 129.453L426.993 116.232H431.205L434.208 124.461L437.25 116.232H441.462L436.158 129.453L441.891 144H437.679L434.208 134.64L430.776 144H426.564ZM455.588 144V116.232H468.263V144H464.285V119.742H459.566V144H455.588ZM474.109 122.784C474.109 121.666 474.304 120.678 474.694 119.82C475.084 118.962 475.604 118.247 476.254 117.675C476.878 117.129 477.58 116.713 478.36 116.427C479.166 116.141 479.972 115.998 480.778 115.998C481.584 115.998 482.377 116.141 483.157 116.427C483.963 116.713 484.691 117.129 485.341 117.675C485.965 118.247 486.472 118.962 486.862 119.82C487.252 120.678 487.447 121.666 487.447 122.784V137.448C487.447 138.618 487.252 139.619 486.862 140.451C486.472 141.283 485.965 141.972 485.341 142.518C484.691 143.09 483.963 143.519 483.157 143.805C482.377 144.091 481.584 144.234 480.778 144.234C479.972 144.234 479.166 144.091 478.36 143.805C477.58 143.519 476.878 143.09 476.254 142.518C475.604 141.972 475.084 141.283 474.694 140.451C474.304 139.619 474.109 138.618 474.109 137.448V122.784ZM478.087 137.448C478.087 138.41 478.347 139.125 478.867 139.593C479.413 140.035 480.05 140.256 480.778 140.256C481.506 140.256 482.13 140.035 482.65 139.593C483.196 139.125 483.469 138.41 483.469 137.448V122.784C483.469 121.822 483.196 121.12 482.65 120.678C482.13 120.21 481.506 119.976 480.778 119.976C480.05 119.976 479.413 120.21 478.867 120.678C478.347 121.12 478.087 121.822 478.087 122.784V137.448ZM493.289 144V116.232H499.256C500.348 116.232 501.31 116.375 502.142 116.661C502.974 116.947 503.728 117.454 504.404 118.182C505.08 118.91 505.548 119.768 505.808 120.756C506.068 121.718 506.198 123.031 506.198 124.695C506.198 125.943 506.12 126.996 505.964 127.854C505.834 128.712 505.535 129.518 505.067 130.272C504.521 131.182 503.793 131.897 502.883 132.417C501.973 132.911 500.777 133.158 499.295 133.158H497.267V144H493.289ZM497.267 119.976V129.414H499.178C499.984 129.414 500.608 129.297 501.05 129.063C501.492 128.829 501.817 128.504 502.025 128.088C502.233 127.698 502.35 127.217 502.376 126.645C502.428 126.073 502.454 125.436 502.454 124.734C502.454 124.084 502.441 123.473 502.415 122.901C502.389 122.303 502.272 121.783 502.064 121.341C501.856 120.899 501.544 120.561 501.128 120.327C500.712 120.093 500.114 119.976 499.334 119.976H497.267ZM511.598 140.256C511.962 140.256 512.378 140.217 512.846 140.139C513.314 140.061 513.678 139.892 513.938 139.632C514.146 139.424 514.367 139.099 514.601 138.657C514.861 138.189 515.095 137.539 515.303 136.707L515.654 135.186L509.648 116.232H513.86L517.604 129.297H517.682L520.607 116.232H524.819L519.047 137.331C518.683 138.605 518.293 139.736 517.877 140.724C517.461 141.712 516.876 142.505 516.122 143.103C515.498 143.623 514.835 143.935 514.133 144.039C513.457 144.169 512.703 144.234 511.871 144.234H511.325V140.256H511.598ZM541.443 144H537.465V131.676C537.257 131.702 536.997 131.741 536.685 131.793C536.373 131.819 535.957 131.832 535.437 131.832C534.527 131.832 533.643 131.702 532.785 131.442C531.927 131.182 531.212 130.779 530.64 130.233C530.068 129.687 529.639 128.985 529.353 128.127C529.093 127.269 528.963 126.359 528.963 125.397V116.232H532.941V124.929C532.941 125.371 532.993 125.813 533.097 126.255C533.201 126.697 533.396 127.061 533.682 127.347C534.176 127.841 534.917 128.088 535.905 128.088C536.113 128.088 536.321 128.088 536.529 128.088C536.737 128.062 536.906 128.036 537.036 128.01C537.192 127.984 537.335 127.958 537.465 127.932V116.232H541.443V144ZM547.535 144V116.232H559.391V119.976H551.513V128.127H558.377V131.871H551.513V140.022H559.391V144H547.535ZM564.31 144V116.232H568.288V128.127H573.202V116.232H577.18V144H573.202V131.637H568.288V144H564.31ZM592.537 144V125.982H592.459L587.233 144H583.255V116.232H587.233V134.289H587.311L592.537 116.232H596.515V144H592.537ZM611.864 144V125.982H611.786L606.56 144H602.582V116.232H606.56V134.289H606.638L611.864 116.232H615.842V144H611.864ZM607.106 110.655C607.132 110.811 607.158 111.006 607.184 111.24C607.21 111.448 607.288 111.669 607.418 111.903C607.574 112.111 607.782 112.293 608.042 112.449C608.328 112.605 608.718 112.683 609.212 112.683C609.706 112.683 610.083 112.605 610.343 112.449C610.629 112.293 610.837 112.111 610.967 111.903C611.123 111.669 611.214 111.448 611.24 111.24C611.266 111.006 611.292 110.811 611.318 110.655H614.633C614.451 112.215 613.931 113.359 613.073 114.087C612.241 114.815 610.954 115.179 609.212 115.179C607.47 115.179 606.17 114.815 605.312 114.087C604.48 113.359 603.973 112.215 603.791 110.655H607.106Z" fill="#91704A"/>
<path fill-rule="evenodd" clip-rule="evenodd" d="M298.075 105.985C290.127 105.985 284.042 103.728 279.822 99.2141C275.603 94.6999 273.493 88.3211 273.493 80.0778V25.9075C273.493 17.6642 275.603 11.2855 279.822 6.77128C284.042 2.25709 290.127 0 298.075 0C306.024 0 312.109 2.25709 316.329 6.77128C320.548 11.2855 322.658 17.6642 322.658 25.9075V80.0778C322.658 88.3211 320.548 94.6999 316.329 99.2141C312.109 103.728 306.024 105.985 298.075 105.985ZM298.075 91.2652C303.669 91.2652 306.466 87.8795 306.466 81.1082V24.8771C306.466 18.1058 303.669 14.7202 298.075 14.7202C292.482 14.7202 289.685 18.1058 289.685 24.8771V81.1082C289.685 87.8795 292.482 91.2652 298.075 91.2652ZM474.873 99.3613C478.994 103.777 484.931 105.985 492.684 105.985C500.437 105.985 506.325 103.777 510.348 99.3613C514.47 94.9452 516.531 88.7137 516.531 80.6666V66.0936H501.222V81.8442C501.222 88.1248 498.523 91.2652 493.126 91.2652C487.728 91.2652 485.03 88.1248 485.03 81.8442V24.2883C485.03 17.9096 487.728 14.7202 493.126 14.7202C498.523 14.7202 501.222 17.9096 501.222 24.2883V36.2117H516.531V25.3187C516.531 17.2717 514.47 11.0401 510.348 6.62409C506.325 2.20803 500.437 0 492.684 0C484.931 0 478.994 2.20803 474.873 6.62409C470.849 11.0401 468.837 17.2717 468.837 25.3187V80.6666C468.837 88.7137 470.849 94.9452 474.873 99.3613ZM532.107 1.47203H548.299V43.4246H565.669V1.47203H581.861V104.513H565.669V58.1447H548.299V104.513H532.107V1.47203ZM599.808 1.47203H616V104.513H599.808V1.47203ZM428.306 105.985C420.456 105.985 414.469 103.777 410.348 99.3613C406.226 94.8471 404.165 88.4193 404.165 80.0778V1.47203H420.357V81.2554C420.357 84.7883 421.044 87.3398 422.418 88.9099C423.89 90.4801 425.951 91.2652 428.601 91.2652C431.25 91.2652 433.262 90.4801 434.636 88.9099C436.108 87.3398 436.844 84.7883 436.844 81.2554V1.47203H452.447V80.0778C452.447 88.4193 450.387 94.8471 446.265 99.3613C442.143 103.777 436.157 105.985 428.306 105.985ZM363.49 1.47203H339.496V104.513H355.689V60.3528H361.282C365.011 60.3528 367.612 61.285 369.084 63.1496C370.654 65.0142 371.439 68.3017 371.439 73.0121V91.854C371.439 95.6812 371.537 98.3309 371.734 99.8029C371.93 101.275 372.322 102.845 372.911 104.513H389.398C388.613 102.747 388.122 100.98 387.926 99.2141C387.73 97.3495 387.631 94.9452 387.631 92.0012V73.8953C387.631 67.811 386.797 62.9533 385.129 59.3224C383.559 55.6914 380.811 53.2871 376.886 52.1095V51.8151C383.951 48.9692 387.484 42.1979 387.484 31.5012V25.1715C387.484 17.1245 385.571 11.1874 381.743 7.3601C377.916 3.43472 371.832 1.47203 363.49 1.47203ZM368.79 43.1302C367.219 44.7984 364.815 45.6326 361.577 45.6326H355.689V16.1922H363.049C365.895 16.1922 367.955 17.0264 369.231 18.6946C370.605 20.3629 371.292 23.0616 371.292 26.7908V34.7396C371.292 38.665 370.458 41.4619 368.79 43.1302ZM235.847 1.47203H212V104.513H228.192V62.5608H235.847C243.894 62.5608 249.929 60.4018 253.953 56.0839C257.976 51.766 259.988 45.4363 259.988 37.0949V26.938C259.988 18.5965 257.976 12.2668 253.953 7.94891C249.929 3.63099 243.894 1.47203 235.847 1.47203ZM241.735 45.6326C240.459 47.1046 238.496 47.8406 235.847 47.8406H228.192V16.1922H235.847C238.496 16.1922 240.459 16.9282 241.735 18.4002C243.109 19.8723 243.796 22.3747 243.796 25.9075V38.1253C243.796 41.6581 243.109 44.1606 241.735 45.6326Z" fill="black"/>
</svg>
