<svg width="96" height="128" viewBox="0 0 96 128" fill="none" xmlns="http://www.w3.org/2000/svg">
<ellipse cx="48" cy="48" rx="37" ry="36" fill="white"/>
<path fill-rule="evenodd" clip-rule="evenodd" d="M31.7182 51.4287C30.636 51.4287 29.8077 51.1214 29.2332 50.5069C28.6588 49.8923 28.3715 49.0239 28.3715 47.9017V40.527C28.3715 39.4048 28.6588 38.5364 29.2332 37.9218C29.8077 37.3073 30.636 37 31.7182 37C32.8003 37 33.6287 37.3073 34.2031 37.9218C34.7776 38.5364 35.0648 39.4048 35.0648 40.527V47.9017C35.0648 49.0239 34.7776 49.8923 34.2031 50.5069C33.6287 51.1214 32.8003 51.4287 31.7182 51.4287ZM31.7182 49.4247C32.4797 49.4247 32.8605 48.9638 32.8605 48.042V40.3867C32.8605 39.4649 32.4797 39.004 31.7182 39.004C30.9567 39.004 30.5759 39.4649 30.5759 40.3867V48.042C30.5759 48.9638 30.9567 49.4247 31.7182 49.4247ZM55.7873 50.5269C56.3484 51.1281 57.1567 51.4287 58.2121 51.4287C59.2675 51.4287 60.0691 51.1281 60.6169 50.5269C61.178 49.9257 61.4586 49.0774 61.4586 47.9818V45.9979H59.3744V48.1422C59.3744 48.9972 59.007 49.4247 58.2722 49.4247C57.5374 49.4247 57.17 48.9972 57.17 48.1422V40.3066C57.17 39.4382 57.5374 39.004 58.2722 39.004C59.007 39.004 59.3744 39.4382 59.3744 40.3066V41.9298H61.4586V40.4469C61.4586 39.3513 61.178 38.503 60.6169 37.9018C60.0691 37.3006 59.2675 37 58.2121 37C57.1567 37 56.3484 37.3006 55.7873 37.9018C55.2395 38.503 54.9656 39.3513 54.9656 40.4469V47.9818C54.9656 49.0774 55.2395 49.9257 55.7873 50.5269ZM63.5789 37.2005H65.7833V42.9118H68.148V37.2005H70.3524V51.2284H68.148V44.9158H65.7833V51.2284H63.5789V37.2005ZM72.7957 37.2005H75.0001V51.2284H72.7957V37.2005ZM49.4478 51.4288C48.379 51.4288 47.5641 51.1282 47.0029 50.527C46.4418 49.9124 46.1613 49.0373 46.1613 47.9017V37.2005H48.3657V48.0621C48.3657 48.543 48.4592 48.8904 48.6462 49.1041C48.8466 49.3179 49.1272 49.4248 49.4879 49.4248C49.8486 49.4248 50.1225 49.3179 50.3095 49.1041C50.5099 48.8904 50.6101 48.543 50.6101 48.0621V37.2005H52.7343V47.9017C52.7343 49.0373 52.4538 49.9124 51.8927 50.527C51.3316 51.1282 50.5166 51.4288 49.4478 51.4288ZM40.6236 37.2005H37.3571V51.2284H39.5615V45.2164H40.323C40.8307 45.2164 41.1847 45.3433 41.3851 45.5972C41.5989 45.851 41.7058 46.2986 41.7058 46.9398V49.5049C41.7058 50.026 41.7191 50.3867 41.7458 50.5871C41.7726 50.7875 41.826 51.0012 41.9062 51.2284H44.1506C44.0437 50.9879 43.9769 50.7474 43.9502 50.5069C43.9235 50.2531 43.9101 49.9258 43.9101 49.525V47.0601C43.9101 46.2318 43.7966 45.5704 43.5695 45.0761C43.3557 44.5818 42.9816 44.2545 42.4472 44.0942V44.0541C43.4091 43.6667 43.8901 42.7448 43.8901 41.2886V40.4269C43.8901 39.3314 43.6296 38.5231 43.1085 38.0021C42.5875 37.4677 41.7592 37.2005 40.6236 37.2005ZM41.345 42.8717C41.1313 43.0989 40.804 43.2124 40.3631 43.2124H39.5615V39.2044H40.5635C40.9509 39.2044 41.2315 39.318 41.4052 39.5451C41.5922 39.7722 41.6857 40.1396 41.6857 40.6473V41.7295C41.6857 42.2639 41.5722 42.6446 41.345 42.8717ZM23.2465 37.2005H20V51.2284H22.2044V45.517H23.2465C24.342 45.517 25.1636 45.2231 25.7114 44.6352C26.2591 44.0474 26.533 43.1857 26.533 42.0501V40.6674C26.533 39.5318 26.2591 38.67 25.7114 38.0822C25.1636 37.4944 24.342 37.2005 23.2465 37.2005ZM24.0481 43.2124C23.8744 43.4128 23.6072 43.513 23.2465 43.513H22.2044V39.2044H23.2465C23.6072 39.2044 23.8744 39.3046 24.0481 39.505C24.2351 39.7054 24.3286 40.0461 24.3286 40.5271V42.1904C24.3286 42.6713 24.2351 43.012 24.0481 43.2124Z" fill="black"/>
<path d="M21.1426 55.8835V56.1255C21.1426 56.2465 21.1187 56.362 21.0711 56.472C21.0271 56.5783 20.9647 56.6737 20.8841 56.758C20.8034 56.8423 20.7081 56.9102 20.5981 56.9615C20.4917 57.0092 20.3762 57.033 20.2516 57.033C20.1452 57.033 20.0371 57.0183 19.9271 56.989C19.8171 56.9597 19.7181 56.9083 19.6301 56.835C19.5421 56.7617 19.4687 56.6682 19.4101 56.5545C19.3551 56.4372 19.3276 56.2887 19.3276 56.109V53.953C19.3276 53.8247 19.3496 53.7055 19.3936 53.5955C19.4376 53.4855 19.4999 53.3902 19.5806 53.3095C19.6612 53.2288 19.7566 53.1665 19.8666 53.1225C19.9802 53.0748 20.1049 53.051 20.2406 53.051C20.5046 53.051 20.7191 53.1372 20.8841 53.3095C20.9647 53.3938 21.0271 53.4947 21.0711 53.612C21.1187 53.7257 21.1426 53.8503 21.1426 53.986V54.206H20.5816V54.019C20.5816 53.909 20.5504 53.8137 20.4881 53.733C20.4257 53.6523 20.3414 53.612 20.2351 53.612C20.0957 53.612 20.0022 53.656 19.9546 53.744C19.9106 53.8283 19.8886 53.9365 19.8886 54.0685V56.0705C19.8886 56.1842 19.9124 56.2795 19.9601 56.3565C20.0114 56.4335 20.1012 56.472 20.2296 56.472C20.2662 56.472 20.3047 56.4665 20.3451 56.4555C20.3891 56.4408 20.4294 56.4188 20.4661 56.3895C20.4991 56.3602 20.5266 56.3198 20.5486 56.2685C20.5706 56.2172 20.5816 56.153 20.5816 56.076V55.8835H21.1426ZM21.8753 57V53.084H23.5473V53.612H22.4363V54.7615H23.4043V55.2895H22.4363V56.439H23.5473V57H21.8753ZM24.186 57V53.084H25.0275C25.1815 53.084 25.3171 53.1042 25.4345 53.1445C25.5518 53.1848 25.6581 53.2563 25.7535 53.359C25.8488 53.4617 25.9148 53.5827 25.9515 53.722C25.9881 53.8577 26.0065 54.0428 26.0065 54.2775C26.0065 54.4535 25.9955 54.602 25.9735 54.723C25.9551 54.844 25.913 54.9577 25.847 55.064C25.77 55.1923 25.6673 55.2932 25.539 55.3665C25.4106 55.4362 25.242 55.471 25.033 55.471H24.747V57H24.186ZM24.747 53.612V54.943H25.0165C25.1301 54.943 25.2181 54.9265 25.2805 54.8935C25.3428 54.8605 25.3886 54.8147 25.418 54.756C25.4473 54.701 25.4638 54.6332 25.4675 54.5525C25.4748 54.4718 25.4785 54.382 25.4785 54.283C25.4785 54.1913 25.4766 54.1052 25.473 54.0245C25.4693 53.9402 25.4528 53.8668 25.4235 53.8045C25.3941 53.7422 25.3501 53.6945 25.2915 53.6615C25.2328 53.6285 25.1485 53.612 25.0385 53.612H24.747ZM26.7007 57V53.084H27.5202C27.6999 53.084 27.8521 53.1115 27.9767 53.1665C28.1051 53.2215 28.2096 53.2948 28.2902 53.3865C28.3709 53.4782 28.4277 53.5845 28.4607 53.7055C28.4974 53.8228 28.5157 53.9457 28.5157 54.074V54.217C28.5157 54.3233 28.5066 54.4132 28.4882 54.4865C28.4736 54.5598 28.4497 54.624 28.4167 54.679C28.3544 54.7817 28.2591 54.8697 28.1307 54.943C28.2627 55.0053 28.3599 55.097 28.4222 55.218C28.4846 55.339 28.5157 55.504 28.5157 55.713V55.933C28.5157 56.2777 28.4314 56.5417 28.2627 56.725C28.0977 56.9083 27.8319 57 27.4652 57H26.7007ZM27.2617 55.185V56.439H27.5037C27.6174 56.439 27.7054 56.4225 27.7677 56.3895C27.8337 56.3565 27.8832 56.3107 27.9162 56.252C27.9492 56.1933 27.9694 56.1237 27.9767 56.043C27.9841 55.9623 27.9877 55.8743 27.9877 55.779C27.9877 55.68 27.9822 55.5938 27.9712 55.5205C27.9602 55.4472 27.9382 55.3848 27.9052 55.3335C27.8686 55.2822 27.8191 55.2455 27.7567 55.2235C27.6944 55.1978 27.6119 55.185 27.5092 55.185H27.2617ZM27.2617 53.612V54.69H27.5147C27.7017 54.69 27.8264 54.6442 27.8887 54.5525C27.9547 54.4572 27.9877 54.3197 27.9877 54.14C27.9877 53.964 27.9511 53.832 27.8777 53.744C27.8081 53.656 27.6797 53.612 27.4927 53.612H27.2617ZM30.6265 57V54.459H30.6155L29.8785 57H29.3175V53.084H29.8785V55.6305H29.8895L30.6265 53.084H31.1875V57H30.6265ZM33.77 55.8835V56.1255C33.77 56.2465 33.7462 56.362 33.6985 56.472C33.6545 56.5783 33.5922 56.6737 33.5115 56.758C33.4309 56.8423 33.3355 56.9102 33.2255 56.9615C33.1192 57.0092 33.0037 57.033 32.879 57.033C32.7727 57.033 32.6645 57.0183 32.5545 56.989C32.4445 56.9597 32.3455 56.9083 32.2575 56.835C32.1695 56.7617 32.0962 56.6682 32.0375 56.5545C31.9825 56.4372 31.955 56.2887 31.955 56.109V53.953C31.955 53.8247 31.977 53.7055 32.021 53.5955C32.065 53.4855 32.1274 53.3902 32.208 53.3095C32.2887 53.2288 32.384 53.1665 32.494 53.1225C32.6077 53.0748 32.7324 53.051 32.868 53.051C33.132 53.051 33.3465 53.1372 33.5115 53.3095C33.5922 53.3938 33.6545 53.4947 33.6985 53.612C33.7462 53.7257 33.77 53.8503 33.77 53.986V54.206H33.209V54.019C33.209 53.909 33.1779 53.8137 33.1155 53.733C33.0532 53.6523 32.9689 53.612 32.8625 53.612C32.7232 53.612 32.6297 53.656 32.582 53.744C32.538 53.8283 32.516 53.9365 32.516 54.0685V56.0705C32.516 56.1842 32.5399 56.2795 32.5875 56.3565C32.6389 56.4335 32.7287 56.472 32.857 56.472C32.8937 56.472 32.9322 56.4665 32.9725 56.4555C33.0165 56.4408 33.0569 56.4188 33.0935 56.3895C33.1265 56.3602 33.154 56.3198 33.176 56.2685C33.198 56.2172 33.209 56.153 33.209 56.076V55.8835H33.77ZM36.6288 53.579V54.7175C36.6288 54.7762 36.6269 54.877 36.6233 55.02C36.6196 55.1593 36.6104 55.3133 36.5958 55.482C36.5811 55.6507 36.5591 55.8175 36.5298 55.9825C36.5004 56.1475 36.4601 56.285 36.4088 56.395C36.3208 56.582 36.2089 56.7305 36.0733 56.8405C35.9376 56.9468 35.7726 57 35.5783 57H35.5453V56.439C35.6553 56.4317 35.7414 56.3987 35.8038 56.34C35.8661 56.2813 35.9174 56.208 35.9578 56.12C35.9908 56.043 36.0164 55.9495 36.0348 55.8395C36.0568 55.7295 36.0733 55.6122 36.0843 55.4875C36.0953 55.3628 36.1026 55.2345 36.1063 55.1025C36.1099 54.9705 36.1118 54.844 36.1118 54.723V53.084H37.7398V57H37.1788V53.579H36.6288ZM39.853 57V54.459H39.842L39.105 57H38.544V53.084H39.105V55.6305H39.116L39.853 53.084H40.414V57H39.853ZM42.9305 57H42.3695V55.262C42.3402 55.2657 42.3035 55.2712 42.2595 55.2785C42.2155 55.2822 42.1568 55.284 42.0835 55.284C41.9552 55.284 41.8305 55.2657 41.7095 55.229C41.5885 55.1923 41.4877 55.1355 41.407 55.0585C41.3263 54.9815 41.2658 54.8825 41.2255 54.7615C41.1888 54.6405 41.1705 54.5122 41.1705 54.3765V53.084H41.7315V54.3105C41.7315 54.3728 41.7388 54.4352 41.7535 54.4975C41.7682 54.5598 41.7957 54.6112 41.836 54.6515C41.9057 54.7212 42.0102 54.756 42.1495 54.756C42.1788 54.756 42.2082 54.756 42.2375 54.756C42.2668 54.7523 42.2907 54.7487 42.309 54.745C42.331 54.7413 42.3512 54.7377 42.3695 54.734V53.084H42.9305V57ZM43.7346 57V53.084H44.2956V54.7615H44.9886V53.084H45.5496V57H44.9886V55.2565H44.2956V57H43.7346ZM46.3514 53.084H46.9124V54.69H47.1214C47.3157 54.69 47.4771 54.7175 47.6054 54.7725C47.7374 54.8238 47.8437 54.8972 47.9244 54.9925C48.0087 55.0952 48.0619 55.2052 48.0839 55.3225C48.1059 55.4398 48.1187 55.57 48.1224 55.713V55.933C48.1224 56.2777 48.0381 56.5417 47.8694 56.725C47.7044 56.9083 47.4386 57 47.0719 57H46.3514V53.084ZM46.9124 55.185V56.439H47.1104C47.2241 56.439 47.3121 56.4225 47.3744 56.3895C47.4404 56.3565 47.4899 56.3107 47.5229 56.252C47.5559 56.1933 47.5761 56.1237 47.5834 56.043C47.5907 55.9623 47.5944 55.8743 47.5944 55.779C47.5944 55.68 47.5889 55.5957 47.5779 55.526C47.5669 55.4563 47.5449 55.3958 47.5119 55.3445C47.4752 55.2932 47.4257 55.2547 47.3634 55.229C47.3011 55.1997 47.2186 55.185 47.1159 55.185H46.9124ZM48.4084 57V53.084H48.9694V57H48.4084ZM49.4989 57L50.2909 54.9485L49.5594 53.084H50.1534L50.5769 54.2445L51.0059 53.084H51.5999L50.8519 54.9485L51.6604 57H51.0664L50.5769 55.68L50.0929 57H49.4989ZM53.4821 57V53.084H55.2696V57H54.7086V53.579H54.0431V57H53.4821ZM56.039 54.008C56.039 53.8503 56.0665 53.711 56.1215 53.59C56.1765 53.469 56.2498 53.3682 56.3415 53.2875C56.4295 53.2105 56.5285 53.1518 56.6385 53.1115C56.7522 53.0712 56.8658 53.051 56.9795 53.051C57.0932 53.051 57.205 53.0712 57.315 53.1115C57.4287 53.1518 57.5313 53.2105 57.623 53.2875C57.711 53.3682 57.7825 53.469 57.8375 53.59C57.8925 53.711 57.92 53.8503 57.92 54.008V56.076C57.92 56.241 57.8925 56.3822 57.8375 56.4995C57.7825 56.6168 57.711 56.714 57.623 56.791C57.5313 56.8717 57.4287 56.9322 57.315 56.9725C57.205 57.0128 57.0932 57.033 56.9795 57.033C56.8658 57.033 56.7522 57.0128 56.6385 56.9725C56.5285 56.9322 56.4295 56.8717 56.3415 56.791C56.2498 56.714 56.1765 56.6168 56.1215 56.4995C56.0665 56.3822 56.039 56.241 56.039 56.076V54.008ZM56.6 56.076C56.6 56.2117 56.6367 56.3125 56.71 56.3785C56.787 56.4408 56.8768 56.472 56.9795 56.472C57.0822 56.472 57.1702 56.4408 57.2435 56.3785C57.3205 56.3125 57.359 56.2117 57.359 56.076V54.008C57.359 53.8723 57.3205 53.7733 57.2435 53.711C57.1702 53.645 57.0822 53.612 56.9795 53.612C56.8768 53.612 56.787 53.645 56.71 53.711C56.6367 53.7733 56.6 53.8723 56.6 54.008V56.076ZM58.6888 57V53.084H59.5303C59.6843 53.084 59.82 53.1042 59.9373 53.1445C60.0546 53.1848 60.161 53.2563 60.2563 53.359C60.3516 53.4617 60.4176 53.5827 60.4543 53.722C60.491 53.8577 60.5093 54.0428 60.5093 54.2775C60.5093 54.4535 60.4983 54.602 60.4763 54.723C60.458 54.844 60.4158 54.9577 60.3498 55.064C60.2728 55.1923 60.1701 55.2932 60.0418 55.3665C59.9135 55.4362 59.7448 55.471 59.5358 55.471H59.2498V57H58.6888ZM59.2498 53.612V54.943H59.5193C59.633 54.943 59.721 54.9265 59.7833 54.8935C59.8456 54.8605 59.8915 54.8147 59.9208 54.756C59.9501 54.701 59.9666 54.6332 59.9703 54.5525C59.9776 54.4718 59.9813 54.382 59.9813 54.283C59.9813 54.1913 59.9795 54.1052 59.9758 54.0245C59.9721 53.9402 59.9556 53.8668 59.9263 53.8045C59.897 53.7422 59.853 53.6945 59.7943 53.6615C59.7356 53.6285 59.6513 53.612 59.5413 53.612H59.2498ZM61.2158 56.472C61.2672 56.472 61.3258 56.4665 61.3918 56.4555C61.4578 56.4445 61.5092 56.4207 61.5458 56.384C61.5752 56.3547 61.6063 56.3088 61.6393 56.2465C61.676 56.1805 61.709 56.0888 61.7383 55.9715L61.7878 55.757L60.9408 53.084H61.5348L62.0628 54.9265H62.0738L62.4863 53.084H63.0803L62.2663 56.0595C62.215 56.2392 62.16 56.3987 62.1013 56.538C62.0427 56.6773 61.9602 56.7892 61.8538 56.8735C61.7658 56.9468 61.6723 56.9908 61.5733 57.0055C61.478 57.0238 61.3717 57.033 61.2543 57.033H61.1773V56.472H61.2158ZM65.3698 57H64.8088V55.262C64.7795 55.2657 64.7428 55.2712 64.6988 55.2785C64.6548 55.2822 64.5962 55.284 64.5228 55.284C64.3945 55.284 64.2698 55.2657 64.1488 55.229C64.0278 55.1923 63.927 55.1355 63.8463 55.0585C63.7657 54.9815 63.7052 54.8825 63.6648 54.7615C63.6282 54.6405 63.6098 54.5122 63.6098 54.3765V53.084H64.1708V54.3105C64.1708 54.3728 64.1782 54.4352 64.1928 54.4975C64.2075 54.5598 64.235 54.6112 64.2753 54.6515C64.345 54.7212 64.4495 54.756 64.5888 54.756C64.6182 54.756 64.6475 54.756 64.6768 54.756C64.7062 54.7523 64.73 54.7487 64.7483 54.745C64.7703 54.7413 64.7905 54.7377 64.8088 54.734V53.084H65.3698V57ZM66.174 57V53.084H67.846V53.612H66.735V54.7615H67.703V55.2895H66.735V56.439H67.846V57H66.174ZM68.4846 57V53.084H69.0456V54.7615H69.7386V53.084H70.2996V57H69.7386V55.2565H69.0456V57H68.4846ZM72.4104 57V54.459H72.3994L71.6624 57H71.1014V53.084H71.6624V55.6305H71.6734L72.4104 53.084H72.9714V57H72.4104ZM75.0809 57V54.459H75.0699L74.3329 57H73.7719V53.084H74.3329V55.6305H74.3439L75.0809 53.084H75.6419V57H75.0809ZM74.4099 52.2975C74.4136 52.3195 74.4172 52.347 74.4209 52.38C74.4246 52.4093 74.4356 52.4405 74.4539 52.4735C74.4759 52.5028 74.5052 52.5285 74.5419 52.5505C74.5822 52.5725 74.6372 52.5835 74.7069 52.5835C74.7766 52.5835 74.8297 52.5725 74.8664 52.5505C74.9067 52.5285 74.9361 52.5028 74.9544 52.4735C74.9764 52.4405 74.9892 52.4093 74.9929 52.38C74.9966 52.347 75.0002 52.3195 75.0039 52.2975H75.4714C75.4457 52.5175 75.3724 52.6788 75.2514 52.7815C75.1341 52.8842 74.9526 52.9355 74.7069 52.9355C74.4612 52.9355 74.2779 52.8842 74.1569 52.7815C74.0396 52.6788 73.9681 52.5175 73.9424 52.2975H74.4099Z" fill="#91704A"/>
<path d="M48 0C21.44 0 0 21.44 0 48C0 80 48 128 48 128C48 128 96 80 96 48C96 21.44 74.56 0 48 0ZM48 16C65.76 16 80 30.4 80 48C80 65.76 65.76 80 48 80C30.4 80 16 65.76 16 48C16 30.4 30.4 16 48 16Z" fill="black"/>
</svg>
